<?xml version="1.0" encoding="UTF-8"?>
<!-- Generator: Adobe Illustrator 16.0.0, SVG Export Plug-In . SVG Version: 6.00 Build 0)  -->
<!DOCTYPE svg PUBLIC "-//W3C//DTD SVG 1.1//EN" "http://www.w3.org/Graphics/SVG/1.1/DTD/svg11.dtd">
<svg version="1.1" id="Layer_1" xmlns="http://www.w3.org/2000/svg" xmlns:xlink="http://www.w3.org/1999/xlink" x="0px" y="0px" width="612px" height="318.084px" viewBox="0 234.5 612 318.084" enable-background="new 0 234.5 612 318.084" xml:space="preserve">
<g>
	<g>
		<circle fill="#005182" cx="306.904" cy="354.547" r="60.296"/>
		<path fill="#005182" d="M79.59,381.68c-44.317,44.92-75.068,83.51-75.068,83.51c0,0.603,0,1.206,0,1.809h93.76    c0-0.302,0-0.603,0-0.904c0,0,89.84-204.101,204.101-207.417C420.26,263.5,511.307,462.777,511.307,466.094    c0,0.302,0,0.603,0,0.904h94.362c0-0.603,0-1.206,0-1.809c-0.302-3.618-186.614-222.491-304.191-222.491    C231.535,242.699,141.996,318.671,79.59,381.68"/>
		<path fill="#005182" d="M100.392,239.382c0,0.301,0,0.603,0,0.904c0,0,89.84,204.1,204.101,207.417    c117.877-4.823,208.924-204.1,208.924-207.417c0-0.301,0-0.603,0-0.904h94.362c0,0.603,0,1.206,0,1.809    c0,3.618-186.313,222.49-304.191,222.49c-119.988,0-297.257-222.49-297.257-222.49c0-0.603,0-1.206,0-1.809H100.392z"/>
	</g>
	<g>
		<path fill="#005182" d="M51.251,517.043c6.331,0,19.897,0,19.897,0c0.301,13.567-7.236,17.486-14.169,20.199    c-0.905,0.302-2.11,0.904-3.618,0.904c-8.441,0.302-13.265,0.604-26.53,0c-6.331-0.301-12.059-1.205-18.39-9.044    c-3.316-4.221-3.919-10.552-3.919-16.883c0-8.743,2.412-15.677,7.838-20.802c6.934-6.935,29.244-5.729,38.891-5.125    c6.029,0.301,10.25,2.713,12.963,5.125c7.537,6.632,6.934,15.073,7.537,15.073l-20.5-0.301c0-3.015-1.508-8.743-12.361-8.743    c-10.853,0.302-13.566,3.015-13.566,14.471c0,5.729,1.206,9.647,3.316,11.758c2.412,2.11,5.426,3.015,10.25,3.316    C44.619,527.294,51.553,526.39,51.251,517.043L51.251,517.043z M72.656,500.764h19.596l9.949,25.022l9.044-25.022h18.089    l-18.993,40.097c-2.11,4.521-4.522,7.537-6.632,9.346c-3.316,2.412-12.662,2.713-18.089,2.11v-8.743    c3.919-0.302,11.456,0.604,11.758-2.713c0.301-3.316,0.301-5.427,0-5.427l-6.03-0.302L72.656,500.764z M132.952,486.594h18.692    v17.787c1.809-1.507,3.919-2.713,6.331-3.315c2.412-0.905,4.823-1.206,7.838-1.206c5.728,0,10.853,1.507,14.471,4.823    c3.919,3.316,5.728,8.14,5.728,14.17c0,3.919-0.904,7.838-2.713,10.853c-1.809,3.016-4.221,5.427-7.235,6.935    c-3.015,1.507-6.632,2.411-10.25,2.411c-3.316,0-6.331-0.603-9.044-1.507c-1.809-0.904-4.221-2.412-6.633-4.823v5.426h-17.184    V486.594L132.952,486.594z M151.644,519.455c0,3.316,0.904,5.729,2.412,6.935c1.507,1.507,3.618,2.11,5.728,2.11    c2.412,0,4.221-0.905,5.427-2.11c1.507-1.508,2.412-3.92,2.412-7.236c0-3.015-0.904-5.125-2.11-6.632    c-1.507-1.508-3.316-2.11-5.426-2.11c-2.412,0-4.522,0.904-6.03,2.11C152.246,514.33,151.644,516.44,151.644,519.455    L151.644,519.455z M244.499,523.073h-34.971c0.301,2.411,1.206,3.919,2.412,5.125c1.809,1.507,4.221,2.412,6.934,2.412    c1.809,0,3.618-0.302,5.125-0.905c0.904-0.301,2.11-1.205,3.316-2.411h16.581c-2.412,6.029-4.522,7.838-8.441,9.346    c-1.507,0.603-3.618,1.206-5.728,1.507c-6.331,0.604-13.265,0.302-20.5,0.302c-2.412,0-4.221-0.904-6.029-1.508    c-3.618-1.507-6.331-3.919-7.839-6.632c-2.11-3.316-2.11-9.647-2.11-10.854c0-6.029,0.905-10.552,5.729-14.169    c4.823-3.618,10.552-5.427,18.993-5.427c6.934,0,12.361,0.904,16.28,2.411c3.919,1.508,6.03,3.92,8.14,6.935    s2.11,7.235,2.11,12.059V523.073z M227.917,516.139c-0.301-2.713-1.206-4.823-3.015-6.029c-1.507-1.206-3.618-1.809-6.029-1.809    c-3.015,0-5.427,0.904-6.934,2.713c-1.206,1.206-1.809,2.714-2.11,5.125H227.917z M253.241,500.764h17.185v6.029    c1.507-2.713,3.316-4.522,5.125-5.427c1.809-0.904,3.919-1.507,6.632-1.507s5.728,0.301,9.044,2.11    c5.125,3.015,7.537,7.838,7.235,16.279l-16.581,0.302c-0.603-4.823-1.206-8.743-5.125-9.044c-5.427,0-5.125,5.728-5.125,16.279    v12.662h-18.39V500.764z M296.654,486.594h21.405l17.184,37.384l14.772-37.384h23.214l-24.721,51.854h-26.53L296.654,486.594z     M378.053,486.594h18.391v9.647h-18.391V486.594z M378.053,500.764h18.391v37.685h-18.391V500.764z M405.187,526.39h18.39    c0,1.507,0.302,2.713,0.604,3.015c0.603,0.603,5.426,0.301,7.838,0.301c0.904,0,4.221,0,6.331,0c0.904,0,2.11,0,2.11-1.205    c0.302-0.905,0.302-3.618-0.603-4.522c-1.206-1.206-11.456-0.604-13.566-0.604c-7.839-0.301-13.566-0.301-18.391-5.125    c-1.809-1.809-1.809-4.221-1.809-6.632c0-2.412,0.904-4.824,2.713-6.331c1.81-1.81,5.427-3.015,8.743-3.92    c6.331-1.809,19.295-1.809,25.625-0.301c2.714,0.603,5.126,1.809,6.935,3.015c2.713,2.11,4.522,4.521,4.522,8.14h-17.486    c0-1.508,0-2.412-0.603-3.015c-0.904-0.904-3.919-0.904-6.633-0.904c-2.412,0-4.823,0-5.728,0.301    c-1.206,0.302-1.206,1.206-1.206,2.714c0,0.904,0,2.11,0.302,2.412c0.904,1.507,6.029,0.904,9.948,1.205    c6.331,0.302,9.346,0,13.566,0c3.618,0.302,5.729,2.11,7.235,3.92c1.508,1.809,2.11,4.221,2.11,7.235    c0,2.11-0.904,4.221-2.411,6.331c-1.81,2.11-4.221,4.221-7.839,4.823c-3.316,0.604-8.441,0.904-14.772,0.904    c-8.743,0-15.677,0-18.691-1.809C408.804,534.228,404.885,530.911,405.187,526.39L405.187,526.39z M465.783,486.594h18.391v9.647    h-18.391V486.594z M465.783,500.764h18.391v37.685h-18.391V500.764z M492.012,519.757c0-5.729,2.412-10.552,7.537-14.17    c4.823-3.617,11.758-5.427,19.897-5.427c9.647,0,16.883,2.11,22.008,6.633c3.919,3.618,5.729,7.839,5.729,12.964    c0,6.029-2.412,10.552-7.235,14.169c-4.824,3.618-11.758,5.427-20.501,5.427c-7.839,0-14.169-1.507-18.691-4.522    C495.026,530.911,492.012,525.786,492.012,519.757L492.012,519.757z M510.402,519.757c0,3.316,0.904,6.029,2.713,7.537    c1.809,1.507,3.919,2.411,6.633,2.411c2.713,0,4.823-0.904,6.632-2.411c1.81-1.508,2.714-4.221,2.714-7.537    s-0.904-5.729-2.714-7.235c-1.809-1.508-3.919-2.412-6.331-2.412c-2.713,0-4.823,0.904-6.632,2.412    C511.307,513.728,510.402,516.44,510.402,519.757L510.402,519.757z M554.418,500.764h17.184v6.029    c2.412-2.412,5.125-4.221,7.839-5.427c2.713-1.206,5.728-1.507,9.647-1.507c5.125,0,9.044,1.206,12.059,3.617    c3.015,2.412,4.221,6.03,4.221,11.155v23.816h-18.691v-20.802c0-2.412-0.603-3.919-1.508-5.125    c-1.205-0.904-2.713-1.508-4.823-1.508s-3.919,0.604-5.427,1.809c-1.206,1.206-2.11,3.618-2.11,6.935v18.089h-18.39V500.764    L554.418,500.764z"/>
	</g>
</g>
</svg>